<?xml version="1.0" encoding="UTF-8"?><svg id="b" xmlns="http://www.w3.org/2000/svg" width="214.25" height="38.99" viewBox="0 0 214.25 38.99"><g id="c"><path d="m14.1,18c-.97,0-1.69.72-1.69,1.69,0,.91.72,1.62,1.69,1.62.91,0,1.69-.72,1.69-1.62,0-.98-.78-1.69-1.69-1.69Z" fill="#df2a5e" fill-rule="evenodd" stroke-width="0"/><path d="m19.5,18c-.97,0-1.69.72-1.69,1.69,0,.91.72,1.62,1.69,1.62.91,0,1.63-.72,1.63-1.62,0-.98-.71-1.69-1.63-1.69Z" fill="#df2a5e" fill-rule="evenodd" stroke-width="0"/><path d="m24.83,18c-.91,0-1.69.72-1.69,1.69,0,.91.78,1.62,1.69,1.62.98,0,1.69-.72,1.69-1.62,0-.98-.71-1.69-1.69-1.69Z" fill="#df2a5e" fill-rule="evenodd" stroke-width="0"/><path d="m19.5,8.38c4.09,0,7.67,2.27,9.62,5.59l7.28-4.22C32.88,3.7,26.45,0,19.5,0,8.71,0,0,8.71,0,19.5s8.71,19.5,19.5,19.5c6.95,0,13.39-3.71,16.9-9.75l-7.28-4.22c-.65,1.17-1.49,2.15-2.47,2.92l-.06.07-.07.06-9.36,7.73,2.6-5.2h-.26c-6.17,0-11.11-5-11.11-11.11s4.94-11.11,11.11-11.11Z" stroke-width="0"/><path d="m58.44,10.78c-1.54,0-3,.23-4.36.69-1.37.46-2.79,1.21-4.26,2.24V0h-9.65v38h9.65v-19.05c1.4-.86,2.74-1.28,4.01-1.28.92,0,1.58.24,1.98.72.39.48.59,1.23.59,2.26v17.35h9.65v-19.51c0-2.47-.65-4.37-1.95-5.7-1.3-1.34-3.18-2.01-5.65-2.01Z" stroke-width="0"/><path d="m95.03,13.07c-1.76-1.52-4.53-2.29-8.29-2.29-2.09,0-4.13.21-6.11.62-1.98.41-3.68.97-5.08,1.69v5.96c3.46-1.06,6.39-1.59,8.78-1.59,1.64,0,2.79.27,3.44.82.65.55.98,1.54.98,2.98v1.34c-1.54-.31-3.08-.46-4.62-.46-2.05,0-3.88.35-5.49,1.05-1.61.7-2.88,1.71-3.8,3.03s-1.39,2.85-1.39,4.6c0,2.47.78,4.43,2.34,5.9,1.56,1.47,3.6,2.21,6.13,2.21,1.37,0,2.71-.25,4.01-.77,1.3-.51,2.47-1.25,3.49-2.21l.72,2.06h7.55v-17.71c0-3.29-.88-5.69-2.64-7.22Zm-6.29,18.2c-.45.45-1.01.81-1.69,1.1-.69.29-1.35.44-2,.44-.79,0-1.41-.24-1.87-.72-.46-.48-.69-1.13-.69-1.95,0-1.92,1.15-2.88,3.44-2.88.93,0,1.87.07,2.82.2v3.8Z" stroke-width="0"/><path d="m117.7,30.66c-.51-.41-.77-1.13-.77-2.16v-10.37h6.68v-6.57h-6.68v-6.88h-7.86l-1.54,7.09-3.9.92v5.45h3.65v10.99c0,3.22.77,5.57,2.31,7.06,1.54,1.49,3.94,2.25,7.19,2.29,2.6,0,4.91-.38,6.93-1.13v-6.36c-1.3.2-2.43.31-3.39.31-1.23,0-2.11-.2-2.62-.61Z" stroke-width="0"/><polygon points="127.48 1.22 136.67 1.22 136.67 38.42 137.56 38.42 137.56 1.22 146.76 1.22 146.76 0 127.48 0 127.48 1.22" stroke-width="0"/><path d="m153.4.94c-.26,0-.46.12-.62.36-.15.24-.23.55-.23.92s.08.68.23.92c.15.24.36.36.62.36s.46-.12.62-.36c.16-.24.23-.55.23-.92s-.08-.67-.23-.92c-.15-.24-.36-.36-.62-.36Z" stroke-width="0"/><rect x="152.98" y="10.53" width=".85" height="27.89" stroke-width="0"/><path d="m164.84,32.66V11.7h6.49v-1.16h-6.49V2.44h-.7l-.15,8.09-3.9.22v.94h3.9v21.01c0,4.03,1.4,6.05,4.21,6.05.64,0,1.29-.08,1.95-.22.66-.15,1.18-.35,1.56-.61v-1.05c-1.06.48-2.19.72-3.4.72-2.32,0-3.48-1.65-3.48-4.94Z" stroke-width="0"/><path d="m184.5,9.81c-1.08,0-2.2.17-3.34.5s-2.21.81-3.19,1.44v1.17c2.19-1.26,4.35-1.89,6.49-1.89,1.88,0,3.27.56,4.17,1.69.9,1.12,1.35,2.87,1.35,5.24v6.21c-.9-.44-1.94-.81-3.11-1.11-1.17-.29-2.22-.44-3.15-.44-2.16,0-3.87.77-5.12,2.3-1.25,1.53-1.87,3.61-1.87,6.24,0,2.37.51,4.25,1.55,5.66,1.03,1.4,2.41,2.11,4.13,2.11,1.31,0,2.62-.35,3.92-1.06,1.3-.7,2.52-1.72,3.65-3.05l.08,3.6h.77v-20.84c0-5.17-2.11-7.76-6.34-7.76Zm5.49,23.67c-2.32,2.81-4.84,4.21-7.57,4.21-1.44,0-2.59-.6-3.46-1.8-.86-1.2-1.29-2.78-1.29-4.74,0-2.29.53-4.08,1.6-5.38,1.07-1.29,2.55-1.94,4.46-1.94,2.09,0,4.17.5,6.26,1.5v8.15Z" stroke-width="0"/><path d="m212.78,11.92c-.98-1.4-2.38-2.11-4.21-2.11-1.44,0-2.9.36-4.38,1.08-1.48.72-2.87,1.75-4.15,3.08l-.08-3.44h-.77v27.89h.85V15.19c1.29-1.29,2.67-2.31,4.15-3.05,1.48-.74,2.9-1.11,4.27-1.11,3.3,0,4.94,2.48,4.94,7.43v19.96h.85v-20.35c0-2.7-.49-4.75-1.47-6.15Z" stroke-width="0"/></g></svg>